<svg width="79" height="25" viewBox="0 0 79 25" fill="none" xmlns="http://www.w3.org/2000/svg">
<path d="M19.1833 12.9051C19.1833 15.0749 18.9427 16.8073 18.4617 18.1025C17.9806 19.3983 17.3088 20.3202 16.4465 20.8695C15.5841 21.4189 14.5405 21.6933 13.3153 21.6933C11.7722 21.6933 10.4514 21.3248 9.35318 20.588C8.32746 19.8997 7.57911 18.8304 7.10753 17.3794C7.04992 17.2021 6.86996 17.0961 6.68822 17.1344L6.6318 17.1464C6.44649 17.1859 6.32236 17.3627 6.3479 17.552L6.98103 22.3414C6.98341 22.3576 6.984 22.3738 6.984 22.39V23.8349C6.984 24.3561 6.70604 24.6999 6.12637 24.6999H0.857632C0.389617 24.6999 0 24.3663 0 23.8349V5.24252C0 4.71475 0.410998 4.37748 0.857632 4.37748H5.94284C6.42452 4.37748 6.81473 4.69678 6.73455 5.30961L6.20892 9.63361C6.18517 9.82711 6.31702 10.0056 6.50767 10.0386L6.54746 10.0452C6.73692 10.0775 6.91867 9.95471 6.96084 9.76601C7.27859 8.35163 7.68959 7.23079 8.19502 6.4029C8.73965 5.5103 9.40901 4.87889 10.2031 4.50807C10.9972 4.13726 11.9706 3.95215 13.1234 3.95215C17.1728 3.95155 19.1922 6.93606 19.1833 12.9051ZM11.5596 16.0357C11.9047 15.4684 12.0769 14.5663 12.0769 13.3304C12.0769 12.1311 11.9088 11.2756 11.5733 10.7628C11.2371 10.25 10.6883 9.99365 9.92572 9.99365C9.43573 9.99365 8.97247 10.1195 8.53712 10.3711C8.10118 10.6227 7.74304 11.0073 7.46152 11.5242C7.18 12.0418 7.02141 12.6798 6.98519 13.44V15.4433C6.98519 15.5655 7.04636 15.6793 7.14673 15.7476C7.76204 16.1639 8.26451 16.4545 8.65294 16.6186C9.07522 16.7972 9.52185 16.8864 9.99402 16.8864C10.6925 16.887 11.2145 16.6037 11.5596 16.0357Z" fill="#FF4052"/>
<path d="M27.2858 0.791589V20.4024C27.2858 20.8858 26.9105 21.2674 26.4282 21.2674H21.2277C20.7615 21.2674 20.3701 20.9002 20.3701 20.4024V1.84893C20.3701 1.38406 20.6505 1.01264 21.122 0.912L26.3943 0.0116155C26.9122 -0.0722526 27.2858 0.309347 27.2858 0.791589Z" fill="#FF4052"/>
<path d="M32.9253 20.7455C31.564 20.0955 30.5472 19.1592 29.8755 17.9371C29.2037 16.715 28.8682 15.2438 28.8682 13.5221V5.24248C28.8682 4.74826 29.2281 4.37744 29.7258 4.37744H34.9945C35.4946 4.37744 35.8522 4.77462 35.8522 5.24248V13.3717C35.8522 14.1774 36.0339 14.731 36.3968 15.0335C36.7597 15.3354 37.2954 15.4864 38.0034 15.4864C38.7113 15.4864 39.2488 15.3282 39.6165 15.0125C39.9841 14.6968 40.1676 14.1499 40.1676 13.3717V5.24248C40.1676 4.76683 40.5062 4.37744 41.0253 4.37744H46.294C46.7834 4.37744 47.1516 4.69195 47.1516 5.14244V13.5227C47.1516 15.2438 46.8155 16.715 46.1443 17.9377C45.4726 19.1598 44.4564 20.0961 43.0945 20.7461C41.7332 21.3961 40.0358 21.7214 38.0028 21.7214C35.9799 21.7208 34.2872 21.3955 32.9253 20.7455Z" fill="#FF4052"/>
<path d="M76.5819 6.03878C77.5393 7.43039 78.018 9.64571 78.018 12.6847V20.4018C78.018 20.8804 77.6676 21.2668 77.1604 21.2668H71.878C71.404 21.2668 71.0203 20.9571 71.0203 20.4018V13.0837C71.0203 11.9946 70.8617 11.2164 70.544 10.7492C70.2262 10.2825 69.7541 10.0489 69.1281 10.0489C68.3566 10.0489 67.7894 10.3119 67.4265 10.8384C67.0636 11.365 66.8729 12.1959 66.8545 13.3305V20.4024C66.8545 20.8589 66.5237 21.2674 65.9969 21.2674H60.7418C60.2595 21.2674 59.8842 20.9038 59.8842 20.4024V13.0837C59.8842 12.0036 59.7298 11.2278 59.4215 10.7564C59.1127 10.2849 58.6411 10.0495 58.0056 10.0495C57.3249 10.0495 56.7756 10.322 56.358 10.8666C55.9405 11.4111 55.7273 12.2193 55.7184 13.2904V20.4036C55.7184 20.9092 55.3876 21.2686 54.8607 21.2686H49.592C49.1276 21.2686 48.7344 20.9278 48.7344 20.4036V5.24263C48.7344 4.7562 49.0694 4.37759 49.592 4.37759H54.682C55.1963 4.37759 55.5568 4.64477 55.4998 5.12641L55.0449 9.25392C55.0253 9.43424 55.1393 9.60198 55.3139 9.64811C55.5164 9.70142 55.7208 9.57023 55.7605 9.36295C56.0082 8.0624 56.339 7.02962 56.753 6.26582C57.2068 5.42834 57.7876 4.83347 58.4956 4.48063C59.2035 4.12838 60.1022 3.95166 61.1914 3.95166C62.5165 3.95166 63.6034 4.41413 64.4521 5.33848C65.2521 6.21071 65.7314 7.5502 65.8906 9.35876C65.9072 9.54686 66.0634 9.69184 66.2511 9.69184H66.3253C66.497 9.69184 66.646 9.57023 66.6799 9.40069C66.9472 8.06539 67.3047 7.01165 67.7537 6.23827C68.2348 5.40977 68.8471 4.82149 69.5919 4.47344C70.3361 4.12539 71.2846 3.95166 72.4374 3.95166C74.2424 3.95166 75.6245 4.64777 76.5819 6.03878Z" fill="#FF4052"/>
</svg>
